<svg viewBox="0 0 400 240" fill="none" style="width:min(440px,88vw)" aria-label="geodesic dome clad in tessellating hexagonal HEX tiles">
          <defs><clipPath id="domeclip"><path d="M80,192 A120,120 0 0 1 320,192 Z"/></clipPath></defs>
          <g stroke="#fe9a0d" stroke-width="2"><circle cx="352" cy="40" r="12" fill="#fe9a0d" stroke="none"/>
            <line x1="352" y1="16" x2="352" y2="8"/><line x1="330" y1="40" x2="322" y2="40"/><line x1="336" y1="24" x2="330" y2="18"/><line x1="368" y1="24" x2="374" y2="18"/></g>
          <line x1="40" y1="192" x2="360" y2="192" stroke="#1d1a17" stroke-width="2.5"/>
          <path d="M80,192 A120,120 0 0 1 320,192 Z" fill="#f6f1e7"/>
          <g clip-path="url(#domeclip)" stroke="#1d1a17" stroke-width="1.4">
            <polygon points="112.5,163.1 104.0,177.8 87.0,177.8 78.5,163.1 87.0,148.3 104.0,148.3" fill="none"/>
            <polygon points="138.0,118.9 129.5,133.6 112.5,133.6 104.0,118.9 112.5,104.2 129.5,104.2" fill="none"/>
            <polygon points="138.0,148.3 129.5,163.1 112.5,163.1 104.0,148.3 112.5,133.6 129.5,133.6" fill="none"/>
            <polygon points="138.0,177.8 129.5,192.5 112.5,192.5 104.0,177.8 112.5,163.1 129.5,163.1" fill="none"/>
            <polygon points="163.5,104.2 155.0,118.9 138.0,118.9 129.5,104.2 138.0,89.4 155.0,89.4" fill="none"/>
            <polygon points="163.5,133.6 155.0,148.3 138.0,148.3 129.5,133.6 138.0,118.9 155.0,118.9" fill="none"/>
            <polygon points="163.5,163.1 155.0,177.8 138.0,177.8 129.5,163.1 138.0,148.3 155.0,148.3" fill="none"/>
            <polygon points="189.0,89.4 180.5,104.2 163.5,104.2 155.0,89.4 163.5,74.7 180.5,74.7" fill="none"/>
            <polygon points="189.0,118.9 180.5,133.6 163.5,133.6 155.0,118.9 163.5,104.2 180.5,104.2" fill="none"/>
            <polygon points="189.0,148.3 180.5,163.1 163.5,163.1 155.0,148.3 163.5,133.6 180.5,133.6" fill="#12b795"/>
            <polygon points="189.0,177.8 180.5,192.5 163.5,192.5 155.0,177.8 163.5,163.1 180.5,163.1" fill="none"/>
            <polygon points="214.5,104.2 206.0,118.9 189.0,118.9 180.5,104.2 189.0,89.4 206.0,89.4" fill="#fe9a0d"/>
            <polygon points="214.5,133.6 206.0,148.3 189.0,148.3 180.5,133.6 189.0,118.9 206.0,118.9" fill="none"/>
            <polygon points="214.5,163.1 206.0,177.8 189.0,177.8 180.5,163.1 189.0,148.3 206.0,148.3" fill="#12b795"/>
            <polygon points="240.0,89.4 231.5,104.2 214.5,104.2 206.0,89.4 214.5,74.7 231.5,74.7" fill="none"/>
            <polygon points="240.0,118.9 231.5,133.6 214.5,133.6 206.0,118.9 214.5,104.2 231.5,104.2" fill="none"/>
            <polygon points="240.0,148.3 231.5,163.1 214.5,163.1 206.0,148.3 214.5,133.6 231.5,133.6" fill="none"/>
            <polygon points="240.0,177.8 231.5,192.5 214.5,192.5 206.0,177.8 214.5,163.1 231.5,163.1" fill="none"/>
            <polygon points="265.5,104.2 257.0,118.9 240.0,118.9 231.5,104.2 240.0,89.4 257.0,89.4" fill="none"/>
            <polygon points="265.5,133.6 257.0,148.3 240.0,148.3 231.5,133.6 240.0,118.9 257.0,118.9" fill="none"/>
            <polygon points="265.5,163.1 257.0,177.8 240.0,177.8 231.5,163.1 240.0,148.3 257.0,148.3" fill="#f0477d"/>
            <polygon points="291.0,118.9 282.5,133.6 265.5,133.6 257.0,118.9 265.5,104.2 282.5,104.2" fill="none"/>
            <polygon points="291.0,148.3 282.5,163.1 265.5,163.1 257.0,148.3 265.5,133.6 282.5,133.6" fill="none"/>
            <polygon points="291.0,177.8 282.5,192.5 265.5,192.5 257.0,177.8 265.5,163.1 282.5,163.1" fill="none"/>
            <polygon points="316.5,133.6 308.0,148.3 291.0,148.3 282.5,133.6 291.0,118.9 308.0,118.9" fill="none"/>
            <polygon points="316.5,163.1 308.0,177.8 291.0,177.8 282.5,163.1 291.0,148.3 308.0,148.3" fill="none"/>
          </g>
          <path d="M80,192 A120,120 0 0 1 320,192" fill="none" stroke="#1d1a17" stroke-width="2.5"/>
          <text x="200" y="222" fill="#1d1a17" font-size="11" text-anchor="middle" font-family="monospace" font-weight="700">GEODESIC ENERGY SKIN</text>
        </svg>