<svg role="img" viewBox="5 18 135 130" fill="none" aria-label="hexagons tessellating into an array">
            <g stroke="#f6f1e7" stroke-width="1.8">
              <polygon points="49.0,42.0 39.5,58.5 20.5,58.5 11.0,42.0 20.5,25.5 39.5,25.5" fill="none"/>
              <polygon points="49.0,74.9 39.5,91.4 20.5,91.4 11.0,74.9 20.5,58.5 39.5,58.5" fill="none"/>
              <polygon points="49.0,107.8 39.5,124.3 20.5,124.3 11.0,107.8 20.5,91.4 39.5,91.4" fill="none"/>
              <polygon points="77.5,58.5 68.0,74.9 49.0,74.9 39.5,58.5 49.0,42.0 68.0,42.0" fill="#12b795"/>
              <polygon points="77.5,91.4 68.0,107.8 49.0,107.8 39.5,91.4 49.0,74.9 68.0,74.9" fill="#f0477d"/>
              <polygon points="77.5,124.3 68.0,140.7 49.0,140.7 39.5,124.3 49.0,107.8 68.0,107.8" fill="none"/>
              <polygon points="106.0,42.0 96.5,58.5 77.5,58.5 68.0,42.0 77.5,25.5 96.5,25.5" fill="none"/>
              <polygon points="106.0,74.9 96.5,91.4 77.5,91.4 68.0,74.9 77.5,58.5 96.5,58.5" fill="#fe9a0d"/>
              <polygon points="106.0,107.8 96.5,124.3 77.5,124.3 68.0,107.8 77.5,91.4 96.5,91.4" fill="none"/>
              <polygon points="134.5,58.5 125.0,74.9 106.0,74.9 96.5,58.5 106.0,42.0 125.0,42.0" fill="none"/>
              <polygon points="134.5,91.4 125.0,107.8 106.0,107.8 96.5,91.4 106.0,74.9 125.0,74.9" fill="none"/>
              <polygon points="134.5,124.3 125.0,140.7 106.0,140.7 96.5,124.3 106.0,107.8 125.0,107.8" fill="none"/>
            </g>
          </svg>